<?xml version="1.0" ?>
<!-- Uploaded to: SVG Repo, www.svgrepo.com, Generator: SVG Repo Mixer Tools -->
<svg width="800px" height="800px" viewBox="0 0 64 64" xmlns="http://www.w3.org/2000/svg">
<g id="a"/>
<g id="b"/>
<g id="c"/>
<g id="d"/>
<g id="e"/>
<g id="f"/>
<g id="g"/>
<g id="h"/>
<g id="i">
<path d="M25.43,19.29l2.94,25.49,2.76,1.8c.53,.35,1.22,.35,1.75,0l2.75-1.8,2.94-25.49h-13.13Z" fill="#758797" id="j"/>
<path d="M38.56,19.29l-6.56-3.05-6.56,3.05,.79,6.82,5.78-2.85,5.7,3.51,.86-7.48Z" fill="#fce87b" id="k"/>
<path d="M49.08,31.67l-4.74-.28-2.86,5.98-4.55,4.52,.03,9.31c.22,.15,.51,.19,.78,.07l12.27-5.72c.56-.26,.9-.86,.82-1.48l-1.75-12.41Z" fill="#ca96e5" id="l"/>
<path d="M41.48,37.38l-4.52,12.25v1.59c.23,.15,.52,.19,.79,.07l2.81-1.31c.31-4.2,.62-8.4,.93-12.6h0Z" fill="#a26fd1" id="m"/>
<path d="M49.49,12.82l-7.25,12.26-.77,12.3,7.6-5.7,9.17-6.63c.48-.46,.75-1.1,.75-1.77V13.69c0-.58-.47-1.04-1.04-1.04h-7.36c-.38,0-.74,.06-1.1,.17Z" fill="#d6b1ed" id="n"/>
<path d="M50.59,12.65c-.38,0-.74,.06-1.1,.17l-5.44,9.19-2.58,15.36,13.7-24.73h-4.59Z" fill="#ca96e5" id="o"/>
<path d="M32,23.26l3.63,21.52,1,5.91c.04,.23,.17,.41,.34,.52l4.52-13.84,8.01-24.56c-.29,.09-.57,.21-.84,.37l-16.66,10.07Z" fill="#e5c9f3" id="p"/>
<path d="M22.52,37.38l-2.78-4.34-4.82-1.36-1.75,12.41c-.08,.62,.26,1.21,.82,1.48l12.27,5.72c.27,.13,.56,.08,.78-.07l-.88-11.93-3.64-1.91Z" fill="#ca96e5" id="q"/>
<path d="M14.51,12.82c-.35-.11-.72-.17-1.1-.17H6.04c-.58,0-1.04,.47-1.04,1.04v9.58c0,.67,.27,1.31,.75,1.77l9.17,6.63,7.6,5.7-.02-11.07-7.99-13.49Z" fill="#d6b1ed" id="r"/>
<path d="M22.52,37.38l4.52,12.25v1.59c-.23,.15-.52,.19-.79,.07l-2.81-1.31c-.31-4.2-.62-8.4-.93-12.6h0Z" fill="#a26fd1" id="s"/>
<path d="M13.41,12.65c.38,0,.74,.06,1.1,.17l5.44,9.19,2.58,15.36L8.82,12.65h4.59Z" fill="#ca96e5" id="t"/>
<path d="M14.51,12.82l8.01,24.56,4.52,13.84c.17-.12,.3-.3,.34-.52l1-5.91,3.63-21.52L15.34,13.19c-.26-.16-.55-.28-.84-.37Z" fill="#e5c9f3" id="u"/>
<path d="M57.96,11.65h-7.36c-.87,0-1.71,.24-2.45,.68l-9.64,5.83-6.08-2.83c-.27-.12-.58-.12-.84,0l-6.08,2.83-9.64-5.83c-.74-.45-1.59-.68-2.45-.68H6.04c-1.13,0-2.04,.92-2.04,2.04v9.58c0,.93,.38,1.84,1.05,2.49,.03,.03,.07,.07,.11,.09l8.68,6.28-1.67,11.83c-.13,1.05,.43,2.06,1.39,2.5l12.27,5.72c.51,.24,1.09,.23,1.59-.04,.5-.26,.84-.73,.94-1.29l.74-4.41,1.48,.96c.86,.56,1.98,.56,2.84,0l1.48-.96,.74,4.41c.09,.56,.44,1.03,.94,1.29,.26,.14,.55,.21,.83,.21,.26,0,.52-.06,.76-.17l12.27-5.72c.96-.45,1.52-1.45,1.39-2.52l-1.67-11.81,8.68-6.28s.08-.06,.11-.09c.67-.65,1.05-1.56,1.05-2.49V13.69c0-1.13-.92-2.04-2.04-2.04Zm-20.85,35.9l-4.01-23.78,14.67-8.87-10.65,32.65Zm-10.22,0L16.24,14.9l14.66,8.87-4.01,23.78Zm5.11-30.21l4.44,2.07-4.44,2.69-4.44-2.69,4.44-2.07ZM6.4,24.28c-.26-.27-.4-.64-.4-1.01l.04-9.62h7.36c.12,0,.23,.08,.35,.1l6.83,20.93L6.4,24.28Zm7.75,19.95l1.52-10.74,6,4.5,3.87,11.85-11.13-5.19c-.17-.08-.27-.26-.25-.43Zm18.17,1.51c-.2,.13-.46,.13-.65,0l-2.21-1.44,2.53-15.02,2.53,15.02-2.21,1.44Zm17.27-1.08l-11.13,5.19,3.87-11.85,6-4.5,1.51,10.72c.02,.19-.08,.37-.25,.45Zm8.41-21.39c0,.37-.15,.74-.4,1.01l-14.19,10.4,6.83-20.93c.12-.02,.23-.1,.35-.1l7.41,.04v9.58Z"/>
</g>
<g id="v"/>
<g id="w"/>
<g id="x"/>
<g id="y"/>
<g id="a`"/>
<g id="aa"/>
<g id="ab"/>
<g id="ac"/>
<g id="ad"/>
<g id="ae"/>
<g id="af"/>
<g id="ag"/>
<g id="ah"/>
<g id="ai"/>
<g id="aj"/>
<g id="ak"/>
<g id="al"/>
<g id="am"/>
<g id="an"/>
<g id="ao"/>
<g id="ap"/>
<g id="aq"/>
<g id="ar"/>
<g id="as"/>
<g id="at"/>
<g id="au"/>
<g id="av"/>
<g id="aw"/>
<g id="ax"/>
<g id="ay"/>
<g id="b`"/>
<g id="ba"/>
<g id="bb"/>
<g id="bc"/>
<g id="bd"/>
<g id="be"/>
<g id="bf"/>
<g id="bg"/>
<g id="bh"/>
<g id="bi"/>
<g id="bj"/>
</svg>